<?xml version="1.0" encoding="UTF-8"?>
<svg version="1.1" xmlns="http://www.w3.org/2000/svg" width="512" height="512">
<path d="M0 0 C1.39887955 -0.01475876 1.39887955 -0.01475876 2.82601929 -0.02981567 C70.2396566 -0.59408403 135.27572319 18.94659336 185.04296875 66.23828125 C186.41165838 67.43304899 187.78626851 68.62108397 189.16796875 69.80078125 C196.40256693 76.12184565 202.81094109 82.94018962 208.8046875 90.4453125 C210.23906456 92.23515473 211.69814609 94.00563831 213.1875 95.75 C256.95834358 147.24974929 273.39372379 215.17698579 268.88873291 281.50927734 C268.19002235 289.86170175 266.787179 298.04789102 265.04296875 306.23828125 C264.85573242 307.16205566 264.66849609 308.08583008 264.47558594 309.03759766 C260.22765401 329.70866535 253.27685913 349.28609969 244.04296875 368.23828125 C243.65238281 369.04007812 243.26179688 369.841875 242.859375 370.66796875 C234.20498434 388.20375048 223.49769162 404.1850286 211.04296875 419.23828125 C210.32391357 420.11178223 210.32391357 420.11178223 209.59033203 421.00292969 C199.40646009 433.31221901 188.59695144 444.31148964 176.04296875 454.23828125 C174.92238818 455.16936418 173.80400622 456.10309771 172.6875 457.0390625 C140.79264795 483.5637075 102.12635587 500.14483536 61.73046875 508.48828125 C61.00384033 508.63950439 60.27721191 508.79072754 59.52856445 508.9465332 C44.29229197 511.9088165 29.15263852 512.64633533 13.66796875 512.61328125 C12.2223053 512.61246552 12.2223053 512.61246552 10.74743652 512.6116333 C-5.1445744 512.57055424 -20.37366566 511.58416675 -35.95703125 508.23828125 C-37.46088379 507.92479736 -37.46088379 507.92479736 -38.99511719 507.60498047 C-63.35689099 502.39463634 -87.67643097 493.98130353 -109.140625 481.19140625 C-109.99865723 480.68013184 -110.85668945 480.16885742 -111.74072266 479.64208984 C-113.38567171 478.6476246 -115.02024636 477.635722 -116.64208984 476.60400391 C-117.38152832 476.1507373 -118.1209668 475.6974707 -118.8828125 475.23046875 C-119.52645752 474.8216748 -120.17010254 474.41288086 -120.83325195 473.99169922 C-125.84868881 472.21245584 -130.86559995 474.85144439 -135.50390625 476.80078125 C-136.45206963 477.19552895 -136.45206963 477.19552895 -137.41938782 477.59825134 C-138.79449109 478.17141596 -140.16842001 478.74740443 -141.54129028 479.32589722 C-145.31376801 480.91516782 -149.09508974 482.48319714 -152.875 484.0546875 C-153.67864487 484.38948624 -154.48228973 484.72428497 -155.31028748 485.06922913 C-165.18401918 489.17699123 -175.10232398 493.17442071 -185.01953125 497.17578125 C-187.61297972 498.22235922 -190.2063662 499.26908761 -192.79942322 500.31663513 C-194.45437104 500.98481332 -196.10976902 501.65187778 -197.76564026 502.31776428 C-201.77482027 503.93365098 -205.76961806 505.57539688 -209.74487305 507.27319336 C-210.51024887 507.59739761 -211.27562469 507.92160187 -212.06419373 508.25563049 C-213.49274588 508.86255881 -214.91830336 509.47661114 -216.33998108 510.09947205 C-222.22905177 512.59250258 -227.66000273 513.49768695 -233.95703125 512.23828125 C-238.58916985 510.04411033 -240.63662479 507.72546274 -242.95703125 503.23828125 C-245.2453816 492.6092633 -240.15373778 483.07920162 -236.01953125 473.61328125 C-235.29787676 471.91704156 -234.57868786 470.21975103 -233.86181641 468.52148438 C-232.73595674 465.85591443 -231.60826594 463.19125303 -230.47259521 460.52984619 C-226.50164025 451.22258933 -222.70725962 441.84624393 -218.92819214 432.45977783 C-217.52146807 428.96722964 -216.10917061 425.47695038 -214.69624329 421.98690796 C-214.04014584 420.36323723 -213.38602791 418.73876496 -212.73405457 417.11343384 C-211.22354795 413.34894767 -209.69217869 409.59736544 -208.09863281 405.8671875 C-207.81150421 405.18362183 -207.52437561 404.50005615 -207.22854614 403.79577637 C-206.45938048 401.96759804 -205.67769346 400.14470172 -204.89501953 398.32226562 C-203.69234069 394.36801286 -204.06265852 392.07665948 -205.84570312 388.41162109 C-206.20212891 387.84652832 -206.55855469 387.28143555 -206.92578125 386.69921875 C-207.32740479 386.04695313 -207.72902832 385.3946875 -208.14282227 384.72265625 C-208.57651123 384.0265625 -209.0102002 383.33046875 -209.45703125 382.61328125 C-223.83559001 358.7273622 -233.26858156 332.48757801 -238.95703125 305.23828125 C-239.16730957 304.2642334 -239.37758789 303.29018555 -239.59423828 302.28662109 C-252.49771617 240.05773446 -238.03546934 171.73797213 -203.875 118.5859375 C-195.77842068 106.36410484 -187.05651149 94.86739066 -176.95703125 84.23828125 C-175.78322562 82.89029801 -174.61605693 81.53649354 -173.45703125 80.17578125 C-166.01193678 71.65219178 -157.85335711 64.21167456 -148.95703125 57.23828125 C-148.36067871 56.7602002 -147.76432617 56.28211914 -147.14990234 55.78955078 C-106.09610534 22.89461205 -53.18389255 0.46311039 0 0 Z " fill="#FD6E88" transform="translate(242.95703125,-0.23828125)"/>
<path d="M0 0 C3.95606194 1.38074319 6.61778053 3.57857854 9.4375 6.6875 C16.2031881 21.03075878 2.39838694 54.26661353 1 60 C30.04 60 59.08 60 89 60 C90.98 51.09 90.98 51.09 93 42 C94.1481387 37.09350102 95.29847673 32.19272661 96.5 27.29980469 C96.83828177 25.91298156 97.17147642 24.52490928 97.5 23.13574219 C97.98852841 21.0719005 98.49253308 19.01238094 99 16.953125 C99.28875 15.75848633 99.5775 14.56384766 99.875 13.33300781 C101.51994511 8.45957235 103.84420299 5.02140201 107.6875 1.625 C111.99148737 -0.48639003 115.2931314 -0.80361171 120 0 C123.95606194 1.38074319 126.61778053 3.57857854 129.4375 6.6875 C132.82010043 13.85861291 130.71162518 21.46454479 128.8125 28.84765625 C128.59053955 29.74495956 128.3685791 30.64226288 128.13989258 31.5667572 C127.43638098 34.40121965 126.71846521 37.23179528 126 40.0625 C125.51726816 41.99650518 125.03548803 43.93074816 124.5546875 45.86523438 C123.38077256 50.57964272 122.19393529 55.29062387 121 60 C121.87213135 59.97381592 122.7442627 59.94763184 123.64282227 59.9206543 C126.90633936 59.83498345 130.16864685 59.77253981 133.43286133 59.7253418 C134.84028075 59.7003332 136.24757206 59.66631385 137.65454102 59.62280273 C150.8461961 59.22532288 150.8461961 59.22532288 155.33984375 62.3203125 C159.05044505 66.05815756 160.89702364 69.13904796 161.08984375 74.49609375 C160.85660955 78.52087882 160.33894758 81.38728708 158.375 84.9375 C152.84884334 89.73653078 147.46901496 90.43779846 140.44140625 90.29296875 C139.25767677 90.28660149 139.25767677 90.28660149 138.05003357 90.28010559 C135.55382739 90.26344452 133.05845808 90.22581779 130.5625 90.1875 C128.86003778 90.17243683 127.15756279 90.15875129 125.45507812 90.14648438 C121.3030678 90.1135825 117.1516753 90.06188951 113 90 C112.65932495 91.59448975 112.65932495 91.59448975 112.31176758 93.22119141 C109.95095106 104.13086397 107.26593411 114.92773419 104.39569092 125.71362305 C103.17959648 130.28369817 101.97430557 134.85661716 100.76953125 139.4296875 C100.53161865 140.33213196 100.29370605 141.23457642 100.04858398 142.16436768 C97.61466371 151.42113099 95.29299358 160.70437048 93.01831055 170.00146484 C92.76218994 171.04254395 92.50606934 172.08362305 92.2421875 173.15625 C91.91516846 174.49913086 91.91516846 174.49913086 91.58154297 175.86914062 C91 178 91 178 90 180 C90.73614029 179.99111755 91.47228058 179.98223511 92.23072815 179.9730835 C99.18919372 179.89272914 106.14758938 179.83193001 113.10640049 179.79275131 C116.68352209 179.77193129 120.26025834 179.74371776 123.8371582 179.69824219 C127.29312329 179.65458221 130.74871917 179.63082094 134.20493889 179.62049103 C136.15640832 179.60957084 138.1077305 179.57837692 140.05897522 179.54681396 C146.93018087 179.54508503 151.45634645 179.78682331 157 184 C159.96026488 187.1160683 161.24400188 190.73886994 161.5 195 C161.24400188 199.26113006 159.96026488 202.8839317 157 206 C150.22608151 211.36268547 142.66485299 210.50997732 134.44140625 210.390625 C132.92684174 210.38315538 131.41226749 210.37746586 129.89768982 210.37347412 C125.93056081 210.35827422 121.96402686 210.31904249 117.99713135 210.2746582 C113.9415288 210.23358263 109.88582917 210.21543702 105.83007812 210.1953125 C97.88644708 210.15254155 89.94329777 210.08436021 82 210 C81.87923096 211.29075439 81.75846191 212.58150879 81.6340332 213.91137695 C81.08159 218.85741819 80.05343991 223.59292633 78.85546875 228.41796875 C78.64440994 229.27884598 78.43335114 230.13972321 78.21589661 231.02668762 C77.77094657 232.83162185 77.3228828 234.63579111 76.87182617 236.43920898 C76.18747513 239.18759986 75.52212271 241.94015919 74.85742188 244.69335938 C74.42042379 246.45601541 73.98231077 248.21839548 73.54296875 249.98046875 C73.34801315 250.79621872 73.15305756 251.61196869 72.95219421 252.45243835 C71.12867069 259.60390553 68.19319283 264.71240496 62 269 C58.38069302 270.20643566 55.80768995 270.32268559 52 270 C46.72161673 267.2055618 42.91135539 263.73406618 41 258 C40.636147 252.24553174 41.6890168 247.35768333 43.15234375 241.85546875 C43.37193253 241.00447098 43.5915213 240.15347321 43.81776428 239.27668762 C44.28041903 237.48983179 44.74707577 235.70400784 45.2175293 233.91918945 C45.93929699 231.18068193 46.64941324 228.43935929 47.35742188 225.69726562 C47.80922824 223.95815976 48.26167944 222.21922126 48.71484375 220.48046875 C48.92842026 219.65967331 49.14199677 218.83887787 49.36204529 217.99320984 C50.88193925 212.23612151 50.88193925 212.23612151 52 210 C22.3 210 -7.4 210 -38 210 C-38.33 212.97 -38.66 215.94 -39 219 C-39.28453404 220.54033185 -39.59827023 222.07626229 -39.96801758 223.59838867 C-40.1552388 224.37917282 -40.34246002 225.15995697 -40.53535461 225.96440125 C-40.7363829 226.77407852 -40.93741119 227.5837558 -41.14453125 228.41796875 C-41.35559006 229.27884598 -41.56664886 230.13972321 -41.78410339 231.02668762 C-42.22905343 232.83162185 -42.6771172 234.63579111 -43.12817383 236.43920898 C-43.81252487 239.18759986 -44.47787729 241.94015919 -45.14257812 244.69335938 C-45.57957621 246.45601541 -46.01768923 248.21839548 -46.45703125 249.98046875 C-46.65198685 250.79621872 -46.84694244 251.61196869 -47.04780579 252.45243835 C-48.87132931 259.60390553 -51.80680717 264.71240496 -58 269 C-61.61930698 270.20643566 -64.19231005 270.32268559 -68 270 C-73.27838327 267.2055618 -77.08864461 263.73406618 -79 258 C-79.363853 252.24553174 -78.3109832 247.35768333 -76.84765625 241.85546875 C-76.62806747 241.00447098 -76.4084787 240.15347321 -76.18223572 239.27668762 C-75.71958097 237.48983179 -75.25292423 235.70400784 -74.7824707 233.91918945 C-74.06070301 231.18068193 -73.35058676 228.43935929 -72.64257812 225.69726562 C-72.19077176 223.95815976 -71.73832056 222.21922126 -71.28515625 220.48046875 C-71.07157974 219.65967331 -70.85800323 218.83887787 -70.63795471 217.99320984 C-69.11806075 212.23612151 -69.11806075 212.23612151 -68 210 C-68.87213135 210.02094727 -69.7442627 210.04189453 -70.64282227 210.06347656 C-73.90627798 210.13201195 -77.16895924 210.18197177 -80.43286133 210.21972656 C-81.84021134 210.23973246 -83.24747938 210.26694662 -84.65454102 210.30175781 C-99.2818024 210.65434689 -99.2818024 210.65434689 -105 206 C-107.96026488 202.8839317 -109.24400188 199.26113006 -109.5 195 C-109.24400188 190.73886994 -107.96026488 187.1160683 -105 184 C-99.47463262 180.21686558 -95.62224248 179.43752133 -89.00390625 179.609375 C-88.17036118 179.61503479 -87.3368161 179.62069458 -86.47801208 179.62652588 C-83.83890168 179.64875805 -81.2011938 179.69892695 -78.5625 179.75 C-76.76369161 179.77008213 -74.96486174 179.78832989 -73.16601562 179.8046875 C-68.77681067 179.84857929 -64.38864239 179.91751269 -60 180 C-59.8868042 178.89382324 -59.7736084 177.78764648 -59.65698242 176.64794922 C-59.01401665 171.53268093 -57.77135411 166.61973584 -56.48828125 161.6328125 C-56.23929581 160.64799896 -55.99031036 159.66318542 -55.73377991 158.64852905 C-55.20368813 156.55286914 -54.67159011 154.45771583 -54.13763428 152.36303711 C-52.75703013 146.94519473 -51.39181574 141.52348668 -50.02734375 136.1015625 C-49.7608905 135.04362488 -49.49443726 133.98568726 -49.21990967 132.89569092 C-46.51947542 122.14300679 -43.98773249 111.3570229 -41.58740234 100.53320312 C-40.77052451 97.01037502 -39.88317494 93.50679204 -39 90 C-40.08541832 90.01332367 -40.08541832 90.01332367 -41.19276428 90.0269165 C-48.03349906 90.10727776 -54.8741627 90.16807344 -61.71524906 90.20724869 C-65.23184006 90.22806691 -68.74803893 90.25627697 -72.2644043 90.30175781 C-76.31302518 90.35379134 -80.36123829 90.3729927 -84.41015625 90.390625 C-85.66458023 90.41127014 -86.91900421 90.43191528 -88.21144104 90.45318604 C-95.03857129 90.45493301 -99.49241531 90.1798764 -105 86 C-108.85730762 81.88553854 -109.42059715 77.6789387 -109.34765625 72.09375 C-108.5694584 67.4070753 -105.57120483 64.13878621 -101.82673645 61.42485046 C-98.37809607 59.68652185 -96.04316633 59.63797867 -92.19018555 59.65942383 C-91.52621262 59.65898575 -90.86223969 59.65854767 -90.17814636 59.65809631 C-87.99736471 59.66017577 -85.81736504 59.68346539 -83.63671875 59.70703125 C-82.1192924 59.71263024 -80.6018606 59.71689891 -79.08442688 59.71989441 C-75.100951 59.73131942 -71.11780606 59.76076605 -67.13446045 59.79400635 C-63.06559729 59.82475803 -58.99668038 59.83841061 -54.92773438 59.85351562 C-46.95167147 59.88563833 -38.97587697 59.93680591 -31 60 C-30.63648438 58.34242676 -30.63648438 58.34242676 -30.265625 56.65136719 C-28.10624913 46.84411109 -25.89490332 37.05248713 -23.5 27.29980469 C-23.16171823 25.91298156 -22.82852358 24.52490928 -22.5 23.13574219 C-22.01147159 21.0719005 -21.50746692 19.01238094 -21 16.953125 C-20.71125 15.75848633 -20.4225 14.56384766 -20.125 13.33300781 C-18.48005489 8.45957235 -16.15579701 5.02140201 -12.3125 1.625 C-8.00851263 -0.48639003 -4.7068686 -0.80361171 0 0 Z " fill="#FED9DF" transform="translate(230,121)"/>
<path d="M0 0 C29.04 0 58.08 0 88 0 C86.87491615 9.00067077 86.87491615 9.00067077 85.91186523 12.99023438 C85.69751328 13.88738159 85.48316132 14.78452881 85.26231384 15.7088623 C85.03008621 16.66087524 84.79785858 17.61288818 84.55859375 18.59375 C84.31262955 19.61633911 84.06666534 20.63892822 83.81324768 21.69250488 C83.28989037 23.8648313 82.76444852 26.03665642 82.23706055 28.20800781 C81.46036093 31.4058758 80.6894849 34.60509556 79.91992188 37.8046875 C75.71235941 55.22919589 71.34783275 72.608669 67 90 C37.3 90 7.6 90 -23 90 C-18.38907461 69.25083576 -18.38907461 69.25083576 -16.37890625 61.25 C-16.15226791 60.3415332 -15.92562958 59.43306641 -15.69212341 58.49707031 C-15.2202995 56.6084356 -14.74732906 54.72008693 -14.27319336 52.83203125 C-13.56337133 50.00347214 -12.85860099 47.17368747 -12.15429688 44.34375 C-8.43547066 29.45615098 -4.40981836 14.69939453 0 0 Z " fill="#FE7088" transform="translate(223,211)"/>
</svg>
